<?xml version="1.0" encoding="UTF-8" standalone="no"?>
<!-- Created with Inkscape (http://www.inkscape.org/) -->

<svg
   width="50mm"
   height="50mm"
   viewBox="0 0 50 50"
   version="1.1"
   id="svg1"
   inkscape:version="1.4.2 (f4327f4, 2025-05-13)"
   sodipodi:docname="Usuario negativo.svg"
   inkscape:export-filename="Usuario negativo.png"
   inkscape:export-xdpi="96"
   inkscape:export-ydpi="96"
   xmlns:inkscape="http://www.inkscape.org/namespaces/inkscape"
   xmlns:sodipodi="http://sodipodi.sourceforge.net/DTD/sodipodi-0.dtd"
   xmlns="http://www.w3.org/2000/svg"
   xmlns:svg="http://www.w3.org/2000/svg">
  <sodipodi:namedview
     id="namedview1"
     pagecolor="#ffffff"
     bordercolor="#000000"
     borderopacity="0.25"
     inkscape:showpageshadow="2"
     inkscape:pageopacity="0.0"
     inkscape:pagecheckerboard="0"
     inkscape:deskcolor="#d1d1d1"
     inkscape:document-units="mm"
     inkscape:zoom="2.1543544"
     inkscape:cx="140.87747"
     inkscape:cy="173.36981"
     inkscape:window-width="1920"
     inkscape:window-height="1057"
     inkscape:window-x="-8"
     inkscape:window-y="-8"
     inkscape:window-maximized="1"
     inkscape:current-layer="layer1" />
  <defs
     id="defs1" />
  <g
     inkscape:label="Capa 1"
     inkscape:groupmode="layer"
     id="layer1">
    <path
       id="path5-8"
       style="fill:#28220b;fill-opacity:1;stroke:#28220b;stroke-width:1.98287;stroke-opacity:1"
       d="M 48.729042,24.724091 A 23.841211,23.691738 0 0 1 24.887833,48.415804 23.841211,23.691738 0 0 1 1.0465572,24.724091 23.841211,23.691738 0 0 1 24.887833,1.0323759 23.841211,23.691738 0 0 1 48.729042,24.724091 Z" />
    <path
       id="path7-4"
       style="fill:#28220b;fill-opacity:1;stroke:#ffffff;stroke-width:1.98287;stroke-opacity:1"
       d="m 35.342342,44.97128 c 5.007167,-3.464914 3.619652,-0.34481 3.914005,-1.821018 1.16609,-5.848047 -6.788747,-11.605011 -12.424258,-11.564356 -5.934282,0.03939 -10.249952,2.265 -12.64796,5.075591 -1.973698,2.313217 -3.067053,7.018912 -1.81173,8.324385"
       sodipodi:nodetypes="csssc" />
    <path
       style="fill:none;fill-opacity:1;stroke:#28220b;stroke-width:3.76745;stroke-dasharray:none;stroke-opacity:1"
       id="path8"
       sodipodi:type="arc"
       sodipodi:cx="24.859623"
       sodipodi:cy="-24.369297"
       sodipodi:rx="22.815086"
       sodipodi:ry="23.913351"
       sodipodi:start="3.1381736"
       sodipodi:end="0.002750592"
       sodipodi:arc-type="slice"
       d="m 2.0446699,-24.287536 a 22.815086,23.913351 0 0 1 11.3804991,-20.77502 22.815086,23.913351 0 0 1 22.855708,-0.008 22.815086,23.913351 0 0 1 11.393746,20.767042 l -22.815,-0.06578 z"
       inkscape:transform-center-x="18.96487"
       inkscape:transform-center-y="85.163626"
       transform="scale(1,-1)" />
    <path
       id="path6-2"
       style="fill:#28220b;fill-opacity:1;stroke:#ffffff;stroke-width:1.98287;stroke-opacity:1"
       d="m 34.816704,20.796874 a 9.4063063,9.4714338 0 0 1 -9.406324,9.471423 9.4063063,9.4714338 0 0 1 -9.406322,-9.471423 9.4063063,9.4714338 0 0 1 9.406322,-9.471422 9.4063063,9.4714338 0 0 1 9.406324,9.471422 z" />
  </g>
</svg>
